<svg xmlns="http://www.w3.org/2000/svg" xmlns:xlink="http://www.w3.org/1999/xlink" version="1.1" width="128" height="128" viewBox="0 0 128 128" xml:space="preserve">
<desc>Created with Fabric.js 3.5.0</desc>
<defs>
</defs>
<rect x="0" y="0" width="100%" height="100%" fill="#ffffff"/>
<g transform="matrix(1 0 0 1 362.4801 543.415)" style="filter: url(#SVGID_11);" id="417560">
<filter id="SVGID_11" y="-54.86%" height="209.72%" x="-23.02%" width="146.04%">
	<feGaussianBlur in="SourceAlpha" stdDeviation="0"/>
	<feOffset dx="5" dy="13" result="oBlur"/>
	<feFlood flood-color="rgb(72,152,156)" flood-opacity="1"/>
	<feComposite in2="oBlur" operator="in"/>
	<feMerge>
		<feMergeNode/>
		<feMergeNode in="SourceGraphic"/>
	</feMerge>
</filter>
		
</g>
<g transform="matrix(1 0 0 1 64 66)" style="" id="926900">
		
<path xml:space="preserve" font-family="Roboto" font-size="23" font-weight="bold" style="stroke: none; stroke-width: 0; stroke-dasharray: none; stroke-linecap: butt; stroke-dashoffset: 0; stroke-linejoin: miter; stroke-miterlimit: 4; is-custom-font: none; font-file-url: none; fill: rgb(20,45,157); fill-rule: nonzero; opacity: 1; white-space: pre;" d="M-41.45-2.50L-41.45 0.14L-47.92 0.14L-47.92 4.52L-40.33 4.52L-40.33 7.23L-51.29 7.23L-51.29-9.13L-40.35-9.13L-40.35-6.40L-47.92-6.40L-47.92-2.50L-41.45-2.50ZM-33.29 7.23L-38.35 7.23L-38.35-9.13L-33.32-9.13Q-31.16-9.13-29.46-8.15Q-27.76-7.18-26.81-5.39Q-25.85-3.60-25.85-1.32L-25.85-1.32L-25.85-0.57Q-25.85 1.71-26.79 3.49Q-27.73 5.26-29.44 6.24Q-31.14 7.21-33.29 7.23L-33.29 7.23ZM-33.32-6.40L-34.98-6.40L-34.98 4.52L-33.35 4.52Q-31.38 4.52-30.33 3.23Q-29.29 1.94-29.27-0.47L-29.27-0.47L-29.27-1.33Q-29.27-3.83-30.30-5.11Q-31.33-6.40-33.32-6.40L-33.32-6.40ZM-19.82-9.13L-19.82 7.23L-23.19 7.23L-23.19-9.13L-19.82-9.13ZM-10.37-6.32L-10.37-1.93L-6.31-1.93L-6.31 1.00L-10.37 1.00L-10.37 5.59L-13.45 5.59L-13.45 1.00L-17.52 1.00L-17.52-1.93L-13.45-1.93L-13.45-6.32L-10.37-6.32ZM5.69-2.17L5.69 0.54L-0.77 0.54L-0.77 7.23L-4.14 7.23L-4.14-9.13L6.50-9.13L6.50-6.40L-0.77-6.40L-0.77-2.17L5.69-2.17ZM16.67 7.23L15.53 3.86L9.62 3.86L8.50 7.23L4.92 7.23L11.01-9.13L14.13-9.13L20.25 7.23L16.67 7.23ZM12.57-4.99L10.53 1.13L14.62 1.13L12.57-4.99ZM31.01 1.78L34.38 1.78Q34.19 4.42 32.43 5.93Q30.67 7.45 27.80 7.45L27.80 7.45Q24.65 7.45 22.85 5.33Q21.05 3.22 21.05-0.48L21.05-0.48L21.05-1.48Q21.05-3.84 21.88-5.63Q22.71-7.43 24.25-8.39Q25.80-9.35 27.84-9.35L27.84-9.35Q30.67-9.35 32.40-7.83Q34.13-6.32 34.40-3.58L34.40-3.58L31.03-3.58Q30.91-5.16 30.15-5.88Q29.39-6.59 27.84-6.59L27.84-6.59Q26.16-6.59 25.32-5.38Q24.48-4.17 24.46-1.64L24.46-1.64L24.46-0.40Q24.46 2.25 25.26 3.47Q26.07 4.70 27.80 4.70L27.80 4.70Q29.36 4.70 30.13 3.99Q30.90 3.27 31.01 1.78L31.01 1.78ZM48.57-9.13L48.57-6.40L43.56-6.40L43.56 7.23L40.19 7.23L40.19-6.40L35.25-6.40L35.25-9.13L48.57-9.13ZM52.12-10.02L52.12-8.37L51.79-3.84L49.74-3.84L49.74-10.02L52.12-10.02Z"/></g>
</svg>