<svg xmlns="http://www.w3.org/2000/svg" xmlns:xlink="http://www.w3.org/1999/xlink" version="1.1" width="600" height="600" viewBox="0 0 600 600" xml:space="preserve">
<desc>Created with Fabric.js 3.5.0</desc>
<defs>
</defs>
<rect x="0" y="0" width="100%" height="100%" fill="rgba(255,255,255,0)"/>
<g transform="matrix(4.5429 0 0 4.5429 299.9975 299.9975)" id="775764">
<path style="stroke: none; stroke-width: 0; stroke-dasharray: none; stroke-linecap: butt; stroke-dashoffset: 0; stroke-linejoin: miter; stroke-miterlimit: 4; is-custom-font: none; font-file-url: none; fill: rgb(20,45,157); fill-rule: nonzero; opacity: 1;" vector-effect="non-scaling-stroke" transform=" translate(-67.5, -67.5)" d="M 132.5 67.5 C 132.5 103.399 103.399 132.5 67.5 132.5 C 31.6015 132.5 2.5 103.399 2.5 67.5 C 2.5 31.6015 31.6015 2.5 67.5 2.5 C 103.399 2.5 132.5 31.6015 132.5 67.5 Z" stroke-linecap="round"/>
</g>
<g transform="matrix(1 0 0 1 300 272.7803)" style="" id="91520">
		
<path xml:space="preserve" font-family="Karla" font-size="312" font-style="normal" font-weight="bold" style="stroke: none; stroke-width: 1; stroke-dasharray: none; stroke-linecap: butt; stroke-dashoffset: 0; stroke-linejoin: miter; stroke-miterlimit: 4; is-custom-font: none; font-file-url: none; fill: rgb(255,255,255); fill-rule: nonzero; opacity: 1; white-space: pre;" d="M-68.56 98.01L-198.67 98.01L-198.67-104.48L-68.56-104.48L-68.56-72.65L-161.85-72.65L-161.85-19.30L-74.18-19.30L-74.18 12.52L-161.85 12.52L-161.85 65.88L-68.56 65.88L-68.56 98.01Z"/><path xml:space="preserve" font-family="Karla" font-size="312" font-style="normal" font-weight="bold" style="stroke: none; stroke-width: 1; stroke-dasharray: none; stroke-linecap: butt; stroke-dashoffset: 0; stroke-linejoin: miter; stroke-miterlimit: 4; is-custom-font: none; font-file-url: none; fill: rgb(255,255,255); fill-rule: nonzero; opacity: 1; white-space: pre;" d="M-34.09 98.01L-34.09-104.48L31.43-104.48Q62.32-104.48 85.57-92.07Q108.81-79.67 121.76-56.90Q134.71-34.12 134.71-3.08L134.71-3.08Q134.71 27.66 121.76 50.35Q108.81 73.05 85.57 85.53Q62.32 98.01 31.43 98.01L31.43 98.01L-34.09 98.01ZM31.43-71.09L2.73-71.09L2.73 64.94L31.43 64.94Q51.09 64.94 65.36 56.05Q79.64 47.16 87.36 31.79Q95.08 16.42 95.08-3.08L95.08-3.08Q95.08-22.89 87.36-38.18Q79.64-53.46 65.36-62.28Q51.09-71.09 31.43-71.09L31.43-71.09Z"/><path xml:space="preserve" font-family="Karla" font-size="312" font-style="normal" font-weight="bold" style="stroke: none; stroke-width: 1; stroke-dasharray: none; stroke-linecap: butt; stroke-dashoffset: 0; stroke-linejoin: miter; stroke-miterlimit: 4; is-custom-font: none; font-file-url: none; fill: rgb(255,255,255); fill-rule: nonzero; opacity: 1; white-space: pre;" d="M198.20 98.01L161.38 98.01L161.38-104.48L198.20-104.48L198.20 98.01Z"/></g>
<g transform="matrix(1 0 0 1 309.5758 433.1936)" style="" id="817170">
		
<path xml:space="preserve" font-family="Karla" font-size="74" font-style="normal" font-weight="bold" style="stroke: none; stroke-width: 1; stroke-dasharray: none; stroke-linecap: butt; stroke-dashoffset: 0; stroke-linejoin: miter; stroke-miterlimit: 4; is-custom-font: none; font-file-url: none; fill: rgb(255,255,255); fill-rule: nonzero; opacity: 1; white-space: pre;" d="M-216.71 23.25L-227.29 23.25L-210.34-0.66L-227.36-24.78L-216.63-24.78L-204.50-7.46L-193.99-24.78L-183.41-24.78L-199.61-0.80L-181.78 23.25L-192.73 23.25L-205.39 6.15L-216.71 23.25ZM-166.35-25.08L-166.35-25.08L-159.76-25.08L-159.76 23.25L-168.50 23.25L-168.50-14.64Q-170.46-13.75-172.34-13.27Q-174.23-12.79-176.12-12.79L-176.12-12.79L-176.12-21.15Q-173.60-21.41-171.23-22.32Q-168.87-23.23-166.35-25.08ZM-112.22 23.25L-148.41 23.25L-148.41 15.03Q-148.41 11.00-147.18 8.19Q-145.96 5.38-143.54 3.43Q-141.12 1.49-137.45 0.08L-137.45 0.08L-127.61-3.69Q-124.39-4.98-122.86-6.87Q-121.32-8.76-121.32-11.53L-121.32-11.53Q-121.32-14.31-123.34-16.21Q-125.35-18.12-129.09-18.12L-129.09-18.12Q-132.68-18.12-135.10-16.33Q-137.53-14.53-137.90-11.09L-137.90-11.09L-147.59-11.09Q-147.48-16.01-145.04-19.27Q-142.60-22.52-138.49-24.13Q-134.38-25.74-129.24-25.74L-129.24-25.74Q-124.39-25.74-120.47-23.91Q-116.55-22.08-114.24-18.80Q-111.92-15.53-111.92-11.16L-111.92-11.16Q-111.92-7.46-113.27-4.65Q-114.62-1.84-117.36 0.27Q-120.10 2.38-124.28 4.01L-124.28 4.01L-134.20 7.85Q-137.08 8.96-138.38 10.31Q-139.67 11.67-139.67 13.85L-139.67 13.85L-139.67 15.25L-112.22 15.25L-112.22 23.25ZM-92.31 1.27L-92.31-13.09L-83.58-13.09L-83.58 1.27L-69.15 1.27L-69.15 8.89L-83.58 8.89L-83.58 23.25L-92.31 23.25L-92.31 8.89L-106.74 8.89L-106.74 1.27L-92.31 1.27ZM-30.19 23.25L-61.05 23.25L-61.05-24.78L-30.19-24.78L-30.19-17.23L-52.32-17.23L-52.32-4.58L-31.52-4.58L-31.52 2.97L-52.32 2.97L-52.32 15.62L-30.19 15.62L-30.19 23.25ZM-17.57 23.25L-17.57-24.78L-2.03-24.78Q5.29-24.78 10.81-21.84Q16.32-18.90 19.39-13.49Q22.46-8.09 22.46-0.73L22.46-0.73Q22.46 6.56 19.39 11.94Q16.32 17.33 10.81 20.29Q5.29 23.25-2.03 23.25L-2.03 23.25L-17.57 23.25ZM-2.03-16.86L-8.84-16.86L-8.84 15.40L-2.03 15.40Q2.63 15.40 6.01 13.29Q9.40 11.18 11.23 7.54Q13.06 3.90 13.06-0.73L13.06-0.73Q13.06-5.43 11.23-9.05Q9.40-12.68 6.01-14.77Q2.63-16.86-2.03-16.86L-2.03-16.86ZM41.96 23.25L33.23 23.25L33.23-24.78L41.96-24.78L41.96 23.25ZM64.49 23.25L55.76 23.25L55.76-24.78L86.03-24.78L86.03-17.23L64.49-17.23L64.49-4.58L84.18-4.58L84.18 2.90L64.49 2.90L64.49 23.25ZM95.39 23.25L86.14 23.25L102.49-24.78L113.44-24.78L129.13 23.25L119.96 23.25L116.63 12.89L98.79 12.89L95.39 23.25ZM107.82-14.35L101.01 6.30L114.55 6.30L107.82-14.35ZM155.14 24.28L155.14 24.28Q148.82 24.28 144.14 21.27Q139.45 18.25 136.86 12.63Q134.27 7.00 134.27-0.88L134.27-0.88Q134.27-9.02 136.96-14.55Q139.64-20.08 144.36-22.91Q149.07-25.74 155.14-25.74L155.14-25.74Q163.54-25.74 168.26-21.67Q172.98-17.60 174.31-11.09L174.31-11.09L164.98-9.39Q163.84-13.16 161.32-15.49Q158.81-17.82 155.14-17.82L155.14-17.82Q151.92-17.82 149.33-15.96Q146.74-14.09 145.21-10.31Q143.67-6.54 143.67-0.88L143.67-0.88Q143.67 4.45 145.02 8.30Q146.37 12.15 148.93 14.22Q151.48 16.29 155.14 16.29L155.14 16.29Q159.84 16.29 162.41 13.79Q164.98 11.30 164.98 7.41L164.98 7.41L174.31 7.41Q174.31 12.78 172.00 16.53Q169.68 20.29 165.39 22.28Q161.10 24.28 155.14 24.28ZM194.95-17.23L178.12-17.23L178.12-24.78L216.60-24.78L216.60-17.23L199.76-17.23L201.73-19.23L201.73 23.25L192.99 23.25L192.99-19.23L194.95-17.23ZM220.41-9.24L219.30-26.85L228.03-26.85L226.85-9.24L220.41-9.24Z"/></g>
</svg>